<svg width="7" height="11" viewBox="0 0 7 11" fill="none" xmlns="http://www.w3.org/2000/svg">
<path d="M0.445482 5.92922L5.34062 10.8243C5.45384 10.9376 5.60498 11 5.76613 11C5.92728 11 6.07842 10.9376 6.19164 10.8243L6.55213 10.4639C6.78671 10.229 6.78671 9.84733 6.55213 9.61285L2.44156 5.50228L6.55669 1.38715C6.66991 1.27384 6.73242 1.1228 6.73242 0.961732C6.73242 0.800489 6.66991 0.649441 6.55669 0.536044L6.1962 0.17573C6.08289 0.0624219 5.93184 -7.83838e-08 5.77069 -7.83838e-08C5.60954 -7.83838e-08 5.4584 0.0624219 5.34518 0.17573L0.445482 5.07525C0.331995 5.18892 0.269663 5.34068 0.270021 5.50201C0.269663 5.66397 0.331995 5.81564 0.445482 5.92922Z" fill="white"/>
</svg>
