<svg width="98" height="34" viewBox="0 0 98 34" fill="none" xmlns="http://www.w3.org/2000/svg">
<path d="M47.02 11V2.72H49.552C51.456 2.72 52.408 3.424 52.408 4.832C52.408 5.264 52.28 5.656 52.024 6.008C51.768 6.36 51.44 6.584 51.04 6.68C51.56 6.776 51.96 6.992 52.24 7.328C52.528 7.664 52.672 8.096 52.672 8.624C52.672 9.296 52.44 9.86 51.976 10.316C51.52 10.772 50.8 11 49.816 11H47.02ZM49.624 7.172H48.052V10.064H49.816C51.032 10.064 51.64 9.584 51.64 8.624C51.64 8.128 51.476 7.764 51.148 7.532C50.82 7.292 50.312 7.172 49.624 7.172ZM49.552 3.644H48.052V6.236H49.732C50.276 6.236 50.684 6.112 50.956 5.864C51.236 5.616 51.376 5.272 51.376 4.832C51.376 4.424 51.236 4.124 50.956 3.932C50.684 3.74 50.216 3.644 49.552 3.644ZM58.6084 7.568L60.3364 5H61.4644L59.4964 7.904L61.6564 11H60.4924L58.6804 8.408H57.8884V11H56.9284V5H57.8884V7.568H58.6084ZM66.929 7.592V8.384C66.929 9.224 66.717 9.888 66.293 10.376C65.869 10.856 65.249 11.096 64.433 11.096C63.649 11.096 63.037 10.856 62.597 10.376C62.157 9.896 61.937 9.232 61.937 8.384V7.592C61.937 6.744 62.157 6.084 62.597 5.612C63.037 5.14 63.649 4.904 64.433 4.904C65.225 4.904 65.837 5.14 66.269 5.612C66.709 6.076 66.929 6.736 66.929 7.592ZM64.433 10.232C64.913 10.232 65.289 10.06 65.561 9.716C65.833 9.372 65.969 8.928 65.969 8.384V7.592C65.969 7.016 65.833 6.568 65.561 6.248C65.297 5.928 64.921 5.768 64.433 5.768C63.945 5.768 63.565 5.932 63.293 6.26C63.029 6.58 62.897 7.024 62.897 7.592V8.384C62.897 8.952 63.025 9.404 63.281 9.74C63.545 10.068 63.929 10.232 64.433 10.232ZM69.1502 5V5.6C69.4862 5.136 70.0302 4.904 70.7822 4.904C71.5342 4.904 72.1222 5.14 72.5462 5.612C72.9702 6.076 73.1822 6.736 73.1822 7.592V8.384C73.1822 9.216 72.9742 9.876 72.5582 10.364C72.1422 10.852 71.5502 11.096 70.7822 11.096C70.0302 11.096 69.4862 10.864 69.1502 10.4V13.28H68.1902V5H69.1502ZM70.6862 10.232C71.1662 10.232 71.5422 10.06 71.8142 9.716C72.0862 9.372 72.2222 8.928 72.2222 8.384V7.592C72.2222 7.016 72.0862 6.568 71.8142 6.248C71.5502 5.928 71.1742 5.768 70.6862 5.768C70.2062 5.768 69.8302 5.924 69.5582 6.236C69.2862 6.54 69.1502 6.964 69.1502 7.508V8.384C69.1502 8.952 69.2782 9.404 69.5342 9.74C69.7982 10.068 70.1822 10.232 70.6862 10.232ZM75.8643 8.288H75.3483V7.424H75.9003C76.7323 7.424 77.1483 7.132 77.1483 6.548C77.1483 6.308 77.0563 6.12 76.8723 5.984C76.6963 5.84 76.4323 5.768 76.0803 5.768C75.5843 5.768 75.1483 5.968 74.7723 6.368L74.0163 5.84C74.4803 5.216 75.1883 4.904 76.1403 4.904C76.7563 4.904 77.2563 5.048 77.6403 5.336C78.0323 5.624 78.2283 5.988 78.2283 6.428C78.2283 7.044 77.9323 7.492 77.3403 7.772C77.6763 7.876 77.9443 8.064 78.1443 8.336C78.3523 8.608 78.4563 8.932 78.4563 9.308C78.4563 9.796 78.2643 10.216 77.8803 10.568C77.5043 10.92 76.9443 11.096 76.2003 11.096C75.0803 11.096 74.3243 10.76 73.9323 10.088L74.6763 9.56C74.9643 10.008 75.4603 10.232 76.1643 10.232C76.5323 10.232 76.8243 10.144 77.0403 9.968C77.2643 9.784 77.3763 9.536 77.3763 9.224C77.3763 8.6 76.8723 8.288 75.8643 8.288ZM79.8152 5H80.7752V9.332L83.7632 5H84.6872V11H83.7272V6.584L80.7152 11H79.8152V5ZM86.2488 5H87.2088V7.52H90.0408V5H91.0008V11H90.0408V8.384H87.2088V11H86.2488V5ZM96.1892 9.56L96.9332 10.088C96.7252 10.448 96.4532 10.708 96.1172 10.868C95.7892 11.02 95.3612 11.096 94.8332 11.096C94.0332 11.096 93.4052 10.856 92.9492 10.376C92.4932 9.888 92.2652 9.224 92.2652 8.384V7.592C92.2652 6.728 92.4692 6.064 92.8772 5.6C93.2852 5.136 93.8732 4.904 94.6412 4.904C95.4252 4.904 96.0172 5.136 96.4172 5.6C96.8172 6.056 97.0172 6.72 97.0172 7.592V8.216H93.2252V8.384C93.2252 8.944 93.3572 9.392 93.6212 9.728C93.8852 10.064 94.2652 10.232 94.7612 10.232C95.4572 10.232 95.9332 10.008 96.1892 9.56ZM94.6412 5.768C93.7612 5.768 93.2892 6.304 93.2252 7.376H96.0452C95.9972 6.304 95.5292 5.768 94.6412 5.768Z" fill="#292929"/>
<path d="M47.064 29V19.34H54.092V29H52.468V20.754H48.688V29H47.064ZM57.9042 29.084L55.2302 22H56.8122L58.5902 26.928L60.1862 22H61.7262L59.2622 29.28C59.0662 29.8773 58.8515 30.3533 58.6182 30.708C58.1795 31.3427 57.3675 31.66 56.1822 31.66V30.288C56.6955 30.288 57.0688 30.2133 57.3022 30.064C57.5355 29.9147 57.7362 29.588 57.9042 29.084ZM66.61 27.152L67.744 27.936C67.296 28.7293 66.4653 29.126 65.252 29.126C64.2906 29.126 63.5346 28.8413 62.984 28.272C62.4426 27.7027 62.172 26.9327 62.172 25.962V25.01C62.172 24.002 62.4426 23.2273 62.984 22.686C63.5346 22.1447 64.3093 21.874 65.308 21.874C66.4466 21.874 67.2586 22.252 67.744 23.008L66.596 23.806C66.2973 23.386 65.8586 23.176 65.28 23.176C64.1973 23.176 63.656 23.8107 63.656 25.08V25.892C63.656 27.1893 64.1973 27.838 65.28 27.838C65.9146 27.838 66.358 27.6093 66.61 27.152ZM68.1484 23.288V22H73.9444V23.288H71.7884V29H70.3044V23.288H68.1484ZM80.3993 25.052V25.934C80.3993 26.9327 80.1473 27.7167 79.6433 28.286C79.1393 28.846 78.402 29.126 77.4313 29.126C76.4793 29.126 75.742 28.846 75.2193 28.286C74.706 27.7167 74.4493 26.9327 74.4493 25.934V25.052C74.4493 24.0253 74.706 23.2413 75.2193 22.7C75.742 22.1493 76.4793 21.874 77.4313 21.874C78.3833 21.874 79.116 22.1493 79.6293 22.7C80.1426 23.2413 80.3993 24.0253 80.3993 25.052ZM77.4313 27.838C77.926 27.838 78.2946 27.6653 78.5373 27.32C78.7893 26.9747 78.9153 26.4987 78.9153 25.892V25.08C78.9153 23.8107 78.4206 23.176 77.4313 23.176C76.4326 23.176 75.9333 23.8107 75.9333 25.08V25.892C75.9333 27.1893 76.4326 27.838 77.4313 27.838Z" fill="#292929"/>
<path d="M11.0666 22.0001H29.1333C29.5807 22.0001 29.9732 21.7043 30.0943 21.2746L34.0945 7.27443C34.1804 6.97261 34.1216 6.6484 33.9323 6.39762C33.7427 6.14762 33.4479 5.99997 33.1333 5.99997H8.758L8.04316 2.78333C7.9416 2.32526 7.53535 2 7.06661 2H0.999991C0.447392 2 0 2.44739 0 2.99999C0 3.55285 0.447392 3.99998 0.999991 3.99998H6.26401L9.87517 20.2498C8.81268 20.7118 8.0666 21.7694 8.0666 23.0001C8.0666 24.6542 9.41242 26.0001 11.0666 26.0001H29.1333C29.6862 26.0001 30.1333 25.5529 30.1333 25.0001C30.1333 24.4475 29.6862 24.0001 29.1333 24.0001H11.0666C10.5158 24.0001 10.0666 23.5519 10.0666 23.0001C10.0666 22.4483 10.5158 22.0001 11.0666 22.0001V22.0001Z" fill="#292929"/>
<path d="M10.0667 29C10.0667 30.6544 11.4125 31.9999 13.0669 31.9999C14.721 31.9999 16.0669 30.6544 16.0669 29C16.0669 27.3458 14.721 26 13.0669 26C11.4125 26 10.0667 27.3458 10.0667 29Z" fill="#292929"/>
<path d="M24.1333 29C24.1333 30.6544 25.4791 31.9999 27.1333 31.9999C28.7877 31.9999 30.1332 30.6544 30.1332 29C30.1332 27.3458 28.7877 26 27.1333 26C25.4791 26 24.1333 27.3458 24.1333 29Z" fill="#292929"/>
</svg>
