<svg width="21" height="21" viewBox="0 0 21 21" fill="none" xmlns="http://www.w3.org/2000/svg">
<path d="M10.5 0C4.71011 0 0 4.71011 0 10.5C0 16.2899 4.71011 21 10.5 21C16.2899 21 21 16.2899 21 10.5C21 4.71011 16.2899 0 10.5 0ZM10.5 19.25C5.67525 19.25 1.75001 15.3247 1.75001 10.5C1.75001 5.67525 5.67525 1.75001 10.5 1.75001C15.3247 1.75001 19.25 5.67525 19.25 10.5C19.25 15.3247 15.3247 19.25 10.5 19.25Z" fill="black"/>
<path d="M10.2774 14.1487C9.70604 14.1584 9.2458 14.6186 9.23617 15.19C9.2353 15.2075 9.2353 15.2259 9.23617 15.2433C9.2563 15.8182 9.73754 16.268 10.3124 16.2487H10.2774C10.8549 16.2391 11.3187 15.7683 11.3187 15.19C11.3047 14.6204 10.8471 14.1627 10.2774 14.1487Z" fill="black"/>
<path d="M10.4804 4.78621C9.24667 4.74946 8.05492 5.23595 7.19917 6.12496C7.10028 6.2492 7.04778 6.40407 7.0504 6.56248C7.05479 6.95011 7.36278 7.26597 7.75042 7.27996C7.93068 7.28082 8.10479 7.2152 8.24043 7.09621C8.78294 6.5336 9.53279 6.2177 10.3142 6.22123C11.4954 6.22123 12.0642 6.85996 12.0642 7.61248C12.0642 9.22246 9.20294 9.42372 9.20294 11.515C9.20294 12.0225 9.51794 12.9587 10.1742 12.9587C10.1794 12.9587 10.1856 12.9587 10.1917 12.9587C10.5443 12.9587 10.8304 12.6726 10.8304 12.32C10.8304 12.0838 10.6642 11.8825 10.6642 11.6462C10.6642 10.0712 13.7442 9.8525 13.8142 7.41125C13.8142 5.92374 12.5542 4.78621 10.4804 4.78621Z" fill="black"/>
</svg>
