<svg width="209" height="40" viewBox="0 0 209 40" fill="none" xmlns="http://www.w3.org/2000/svg">
<path d="M73.5517 18.7026C73.3478 15.9243 71.3084 13.146 67.0259 9.75789C67.2298 9.28355 67.3657 7.38618 65.1905 6.30197C59.7522 3.45592 48.1281 0.474342 39.359 0C39.427 0.203289 39.6309 0.880921 39.7669 1.35526C29.3663 0.880921 18.6938 1.42302 10.8084 2.16842C8.1573 2.43947 0 3.52368 0 3.52368L18.4899 11.3164C16.5185 11.7908 14.4792 12.2651 12.5079 12.7395C10.4685 13.2816 4.35056 15.3145 4.35056 15.3145C4.35056 15.3145 9.78876 16.4664 11.7601 16.9408C15.4309 17.7539 25.8315 19.9224 30.25 20.9388C29.6382 22.7007 25.8315 35.1013 25.8315 35.1013C25.8315 35.1013 30.7938 29.9513 32.2893 28.4605C34.2607 26.6309 34.8725 26.021 35.4843 25.5467C35.2803 28.1895 34.7365 33.8816 34.6006 35.2368C34.4646 36.3211 34.7365 37.5408 35.3483 38.2184C35.9601 38.896 37.0478 39.1671 37.9994 39.0993C38.8152 39.0316 39.7669 38.4895 40.4466 37.8796C43.4376 35.4401 50.9152 28.8671 57.2371 22.8362C57.577 22.7684 57.9169 22.7684 58.3247 22.7007C62.6753 22.2263 66.8899 22.9039 67.5697 25.0724C68.0455 26.4954 67.5697 27.3763 67.0938 28.6638C67.8416 27.9862 69.7449 26.2243 70.4927 25.2757C71.8523 23.7849 73.7556 21.4809 73.5517 18.7026Z" fill="black"/>
<path d="M39.6987 7.79276H39.7667C39.4947 7.31842 39.2908 6.77631 39.0869 6.4375C42.6217 6.03092 50.847 6.4375 54.1779 8.53816C57.4408 10.6388 60.4318 11.3164 62.6751 10.8421C62.4712 11.3842 61.6554 12.0618 61.6554 12.0618C60.9077 12.1974 60.024 12.2651 59.1403 12.1296C58.1886 13.6204 55.9453 13.4849 52.3425 15.2467C48.4678 17.1441 42.7577 20.3289 37.7953 23.8526C37.6594 25.6145 37.3195 29.0704 37.3195 29.5447L44.4571 26.9697L43.0296 25.75L49.1476 24.3947C50.1672 22.8362 57.7127 15.5855 58.8684 14.7046C59.3442 14.6368 59.7521 14.5013 60.0919 14.5013C61.6554 13.146 63.4228 11.8586 65.3262 10.8421C65.3262 10.7066 65.3942 10.6388 65.3942 10.5033C65.5301 9.82566 65.4622 8.94474 64.5785 8.47039C50.0313 0.948682 23.1801 3.38815 8.70093 4.54013L22.2964 10.5711C28.8223 9.21579 34.8723 8.33487 39.6987 7.79276Z" fill="#C2B39C"/>
<path d="M42.9615 25.8178L44.389 27.0375L37.2514 29.6125C37.2514 29.6125 36.8435 34.1526 36.7755 35.2368C36.6396 36.7276 37.8631 37.1342 39.0867 36.1855C41.7379 34.0171 47.9238 28.7316 53.7019 23.3783L42.9615 25.8178Z" fill="#7F7664"/>
<path d="M55.7415 13.0105C53.0224 13.4171 51.7308 11.5197 51.4589 9.55461C50.5072 9.41908 49.4875 9.28355 48.6718 9.21579C48.6038 11.723 50.3712 14.4335 54.4499 13.8237C55.9454 13.6204 56.6932 13.0783 57.033 12.5362C56.6932 12.7395 56.2853 12.875 55.7415 13.0105Z" fill="white"/>
<path d="M65.258 10.9099C59.6159 13.8237 55.0614 19.7191 53.4299 21.8198C58.1204 20.329 67.7732 19.5158 69.3367 24.1915C71.9198 20.8711 74.503 18.025 65.258 10.9099ZM62.4709 14.7724C62.4709 14.7724 62.7429 14.027 63.8305 13.5526C65.462 14.298 66.2097 15.2467 66.2097 15.2467L62.4709 14.7724Z" fill="#F0EAD8"/>
<path d="M49.4875 14.4336C47.5162 13.3494 46.9044 11.2487 47.1083 9.28357C43.9813 9.48686 27.3269 10.8421 12.2358 14.7724C17.1302 15.5855 32.901 19.2448 32.901 19.2448C32.901 19.2448 31.2016 24.327 30.2499 27.5796C36.096 22.5651 39.9707 19.6513 49.4875 14.4336ZM31.5415 14.5691L43.3695 13.2816L36.9797 17.9573L37.1156 16.0599L31.5415 14.5691Z" fill="#ED1C24"/>
<path d="M144.384 31.7132L146.899 18.8382H158.999L157.096 21.752H150.162L148.667 29.6125C148.463 30.8322 147.375 31.7132 146.152 31.7132H144.384V31.7132Z" fill="#232629"/>
<path d="M87.1471 18.8388H79.0578C79.0578 18.9066 78.9898 18.9743 78.9898 19.0421C79.8055 19.3809 80.9611 19.9908 80.3493 21.0072L73.3477 31.7138H76.2027C77.0864 31.7138 77.9021 31.2395 78.378 30.4941L78.9218 29.6131H86.0594L86.6033 31.7138H90.6139L87.1471 18.8388ZM80.5533 26.9704L83.6802 21.9559H84.0881L85.3797 26.9704H80.5533Z" fill="#232629"/>
<path d="M121.68 18.8382H113.591C113.591 18.9059 113.523 18.9737 113.523 19.0415C114.271 19.3125 115.358 19.9224 115.018 20.8033L107.949 31.7132H110.804C111.687 31.7132 112.503 31.2388 112.979 30.4934L113.523 29.6125H120.661L121.204 31.7132H125.215L121.68 18.8382ZM115.154 26.9697L118.281 21.9553H118.689L119.981 26.9697H115.154Z" fill="#232629"/>
<path d="M168.788 18.8382H160.699C160.699 18.9059 160.631 18.9737 160.631 19.0415C161.447 19.3125 162.602 19.9901 162.059 20.9388L155.057 31.6454H157.912C158.796 31.6454 159.611 31.1711 160.087 30.4257L160.631 29.5447H167.769L168.313 31.6454H172.323L168.788 18.8382ZM162.195 26.9697L165.321 21.9553H165.729L167.021 26.9697H162.195Z" fill="#232629"/>
<path d="M205.496 29.0704L207.468 18.8382H192.717C192.717 18.9059 192.649 18.9737 192.649 19.0415C193.464 19.3125 194.416 19.8546 194.076 20.9388L190.745 29.0704H188.366L187.482 33.7461H189.182C190.405 33.7461 191.493 32.8651 191.697 31.6454H203.797L203.389 33.7461H207.196L208.08 29.0704H205.496ZM201.622 29.0704H194.824L197.883 21.4809H203.049L201.622 29.0704Z" fill="#232629"/>
<path d="M106.316 24.8691L106.044 24.8013L106.112 24.598L106.316 24.5303C106.928 24.3947 107.404 23.9882 107.676 23.7171C108.22 23.1072 108.559 22.4296 108.559 21.4132C108.559 19.2447 106.452 18.7704 104.753 18.7704H92.8566C92.8566 18.8381 92.7887 18.9059 92.7887 18.9737C93.6044 19.3125 94.4201 19.7868 94.1482 20.9388L92.1089 31.6454H102.849C104.753 31.6454 106.112 31.171 106.996 30.1546C107.676 29.4092 108.016 28.4605 108.016 27.2408C107.948 26.0888 107.404 25.2079 106.316 24.8691ZM103.325 28.5283C102.985 28.9349 102.441 29.1382 101.762 29.1382H96.3915L96.9353 26.2243H102.238C102.577 26.2243 103.733 26.2243 103.733 27.3085C103.733 27.8507 103.597 28.1895 103.325 28.5283ZM103.869 23.446C103.529 23.7849 103.121 23.9881 102.509 23.9881H97.3432L97.887 21.3454H102.917C103.801 21.3454 104.277 21.6842 104.277 22.3618C104.277 22.8362 104.141 23.175 103.869 23.446Z" fill="#232629"/>
<path d="M140.305 18.8382L139.354 23.7171H132.012L132.964 18.8382H127.389C127.389 18.9059 127.321 18.9737 127.321 19.0415C128.137 19.3803 128.953 19.8546 128.681 21.0066L126.574 31.7132H128.273C129.497 31.7132 130.584 30.8322 130.788 29.6125L131.4 26.5632H138.742L137.722 31.7132H141.529L144.044 18.8382H140.305Z" fill="#232629"/>
<path d="M185.783 18.8382H174.498C174.498 18.9059 174.431 18.9737 174.431 19.0415C175.246 19.3803 176.062 19.8546 175.79 21.0066L173.751 31.7132H175.45C176.674 31.7132 177.761 30.8322 177.965 29.6125L178.373 27.3763H184.287C186.463 27.3763 188.026 26.8342 188.978 25.6822C189.725 24.8013 190.133 23.5816 190.133 22.0908C190.133 19.8546 188.774 18.8382 185.783 18.8382ZM185.443 24.0559C185.171 24.3947 184.695 24.8013 183.675 24.8013H178.849L179.461 21.6165H184.219C185.307 21.6165 185.851 22.023 185.851 22.8362C185.851 23.1072 185.783 23.5816 185.443 24.0559Z" fill="#232629"/>
<path d="M82.6608 11.5198L83.7484 10.2323H84.972L83.2046 12.2652L84.3602 14.5013H83.2046L82.4568 13.0106L81.1652 14.5013H79.9417L81.913 12.2652L80.8933 10.2323H82.0489L82.6608 11.5198Z" fill="#232629"/>
<path d="M85.1074 12.7395C85.1074 12.5362 85.1754 12.2651 85.2434 12.0619C85.3114 11.8586 85.3793 11.6553 85.5153 11.452C85.6512 11.2487 85.7872 11.1132 85.9911 10.9099C86.1951 10.7744 86.331 10.6388 86.535 10.5033C86.7389 10.3678 86.9428 10.3 87.2147 10.2323C87.4187 10.1645 87.6906 10.1645 87.8945 10.1645C88.1664 10.1645 88.4383 10.2323 88.7102 10.3C88.9821 10.3678 89.1861 10.5033 89.322 10.7066C89.526 10.9099 89.6619 11.1132 89.7299 11.3165C89.7979 11.5198 89.8658 11.7908 89.8658 12.0619C89.8658 12.2651 89.7979 12.5362 89.7299 12.7395C89.6619 12.9428 89.526 13.1461 89.458 13.3494C89.322 13.5526 89.1861 13.6882 88.9821 13.8915C88.7782 14.027 88.6423 14.1625 88.4383 14.298C88.2344 14.4336 88.0305 14.5013 87.7585 14.5691C87.5546 14.6369 87.2827 14.6369 87.0788 14.6369C86.8069 14.6369 86.535 14.5691 86.263 14.5013C85.9911 14.4336 85.7872 14.2303 85.6512 14.0947C85.4473 13.8915 85.3114 13.6882 85.2434 13.4849C85.1754 13.2816 85.1074 13.0105 85.1074 12.7395ZM86.1271 12.604C86.1271 12.7395 86.1271 12.9428 86.1951 13.0783C86.263 13.2138 86.331 13.3494 86.399 13.4171C86.467 13.5526 86.6029 13.6204 86.7389 13.6882C86.8748 13.7559 87.0108 13.7559 87.2147 13.7559C87.3507 13.7559 87.4866 13.7559 87.6226 13.6882C87.7586 13.6204 87.8945 13.6204 88.0305 13.5526C88.1664 13.4849 88.2344 13.4171 88.3703 13.2816C88.4383 13.2138 88.5743 13.0783 88.6423 12.9428C88.7102 12.8073 88.7782 12.6717 88.8462 12.5362C88.9142 12.4007 88.9142 12.2651 88.9142 12.1296C88.9142 11.9941 88.9142 11.7908 88.8462 11.6553C88.7782 11.5198 88.7102 11.3842 88.6423 11.3165C88.5743 11.1809 88.4383 11.1132 88.3024 11.0454C88.1664 10.9776 88.0305 10.9776 87.8265 10.9776C87.6226 10.9776 87.4187 11.0454 87.2147 11.1132C87.0108 11.1809 86.8748 11.3165 86.6709 11.452C86.535 11.5875 86.399 11.7908 86.331 11.9941C86.1951 12.1974 86.1271 12.4007 86.1271 12.604Z" fill="#232629"/>
<path d="M91.9052 12.4007L93.9445 10.2323H95.1002L93.2648 12.1296L94.4204 14.5013H93.2648L92.517 12.875L91.7013 13.6882L91.5653 14.5013H90.5457L91.2934 10.2323H92.3131L91.9052 12.4007Z" fill="#232629"/>
<path d="M96.5961 12.4007L98.6355 10.2323H99.7911L97.9557 12.1296L99.1113 14.5013H97.9557L97.2079 12.875L96.3922 13.6882L96.2562 14.5013H95.2366L95.9843 10.2323H97.004L96.5961 12.4007Z" fill="#232629"/>
<path d="M100.742 10.2323H103.801L103.665 11.1132H101.626L101.49 11.9941H103.257L103.121 12.875H101.354L101.218 13.6882H103.257L103.121 14.5691H100.062L100.742 10.2323Z" fill="#232629"/>
<path d="M104.821 10.2322H105.841L105.365 12.8072L107.88 10.2322H108.764L108.016 14.5013H106.997L107.473 11.9263L104.957 14.5013H104.074L104.821 10.2322ZM108.152 8.80922C108.084 8.94475 108.084 9.08027 108.016 9.2158C107.948 9.35133 107.88 9.41909 107.745 9.48685C107.609 9.55462 107.541 9.62238 107.405 9.69014C107.269 9.7579 107.133 9.7579 106.929 9.7579C106.793 9.7579 106.589 9.7579 106.521 9.69014C106.385 9.62238 106.317 9.55462 106.249 9.48685C106.181 9.41909 106.113 9.28356 106.113 9.2158C106.113 9.08027 106.045 8.94475 106.113 8.80922L106.793 8.74146C106.793 8.80922 106.793 8.80922 106.861 8.87698C106.861 8.94475 106.929 8.94475 106.929 8.94475L106.997 9.01251C107.065 9.01251 107.065 9.01251 107.133 9.01251C107.201 9.01251 107.269 9.01251 107.269 9.01251C107.337 9.01251 107.337 9.01251 107.405 8.94475C107.473 8.94475 107.473 8.87698 107.473 8.87698C107.473 8.80922 107.541 8.80922 107.541 8.74146L108.152 8.80922Z" fill="#232629"/>
<path d="M110.056 10.2323H111.076L110.736 11.9941H112.639L112.979 10.2323H113.999L113.251 14.5013H112.231L112.503 12.8073H110.6L110.328 14.5013H109.308L110.056 10.2323Z" fill="#232629"/>
<path d="M116.854 11.5875C117.058 11.5875 117.262 11.5875 117.398 11.6553C117.533 11.7231 117.669 11.7908 117.805 11.9263C117.941 12.0619 118.009 12.1974 118.077 12.3329C118.145 12.4685 118.145 12.6717 118.145 12.8073C118.145 13.0783 118.077 13.2816 118.009 13.4849C117.941 13.6882 117.805 13.8915 117.601 14.027C117.465 14.1625 117.262 14.2981 116.99 14.3658C116.786 14.4336 116.514 14.5013 116.242 14.5013H114.406L115.154 10.2323H116.174L115.97 11.5198H116.854V11.5875ZM116.65 12.4007H115.834L115.63 13.6882H116.446C116.514 13.6882 116.65 13.6882 116.718 13.6204C116.786 13.5527 116.854 13.5527 116.922 13.4849C116.99 13.4171 117.058 13.3494 117.058 13.2816C117.126 13.2138 117.126 13.0783 117.126 13.0106C117.126 12.9428 117.126 12.875 117.058 12.8073C117.058 12.7395 116.99 12.6717 116.99 12.6717C116.922 12.604 116.922 12.604 116.854 12.5362C116.786 12.4685 116.718 12.4007 116.65 12.4007ZM118.213 14.5691H119.233L119.981 10.3H118.961L118.213 14.5691Z" fill="#232629"/>
<path d="M121.34 10.2322H122.359L121.884 12.8072L124.399 10.2322H125.282L124.535 14.5013H123.515L123.991 11.9263L121.476 14.5013H120.592L121.34 10.2322ZM124.603 8.80922C124.603 8.94475 124.535 9.08027 124.467 9.2158C124.399 9.35133 124.331 9.41909 124.195 9.48685C124.059 9.55462 123.991 9.62238 123.855 9.69014C123.719 9.7579 123.583 9.7579 123.379 9.7579C123.243 9.7579 123.039 9.7579 122.971 9.69014C122.835 9.62238 122.767 9.55462 122.699 9.48685C122.631 9.41909 122.563 9.28356 122.563 9.2158C122.563 9.08027 122.495 8.94475 122.563 8.80922L123.243 8.74146C123.243 8.80922 123.243 8.80922 123.311 8.87698C123.311 8.94475 123.379 8.94475 123.379 8.94475L123.447 9.01251C123.515 9.01251 123.515 9.01251 123.583 9.01251C123.651 9.01251 123.719 9.01251 123.719 9.01251C123.787 9.01251 123.787 9.01251 123.855 8.94475C123.923 8.94475 123.923 8.87698 123.923 8.87698C123.923 8.80922 123.991 8.80922 123.991 8.74146L124.603 8.80922Z" fill="#232629"/>
<path d="M128.953 12.4007L130.992 10.2323H132.148L130.313 12.1296L131.468 14.5013H130.313L129.565 12.875L128.749 13.6882L128.613 14.5013H127.594L128.341 10.2323H129.361L128.953 12.4007Z" fill="#232629"/>
<path d="M136.091 11.1131H134.323L134.051 12.6717V12.7395L133.915 13.4171C133.847 13.6204 133.779 13.8237 133.711 13.9592C133.575 14.0947 133.507 14.2302 133.372 14.298C133.236 14.3658 133.1 14.4335 132.896 14.5013C132.76 14.5691 132.556 14.5691 132.42 14.5691C132.352 14.5691 132.284 14.5691 132.216 14.5691C132.148 14.5691 132.08 14.5691 132.012 14.5691L132.352 13.7559C132.352 13.7559 132.352 13.7559 132.42 13.7559H132.488H132.556C132.556 13.7559 132.556 13.7559 132.624 13.7559C132.692 13.7559 132.828 13.7559 132.896 13.6881C132.964 13.6204 133.032 13.5526 133.032 13.4171L133.168 12.7395L133.575 10.3H137.314L136.566 14.5691H135.547L136.091 11.1131Z" fill="#232629"/>
<path d="M138.13 13.756C138.13 13.756 138.198 13.756 138.13 13.756C138.198 13.756 138.198 13.756 138.198 13.756H138.266C138.266 13.756 138.266 13.756 138.334 13.756C138.402 13.756 138.47 13.756 138.538 13.756C138.606 13.756 138.674 13.6882 138.674 13.6204L139.014 13.1461L138.062 10.2323H139.15L139.693 12.1296L140.917 10.2323H142.005L139.489 13.9592C139.421 14.0948 139.354 14.1625 139.218 14.2303C139.15 14.2981 139.014 14.3658 138.878 14.4336C138.742 14.5013 138.674 14.5013 138.538 14.5691C138.402 14.5691 138.266 14.6369 138.198 14.6369C138.13 14.6369 138.062 14.6369 137.994 14.6369C137.926 14.6369 137.858 14.6369 137.79 14.6369L138.13 13.756Z" fill="#232629"/>
<path d="M144.316 11.7908C144.52 11.7908 144.724 11.7908 144.86 11.8585C144.996 11.9263 145.132 11.9941 145.268 12.1296C145.404 12.2651 145.472 12.3329 145.54 12.4684C145.608 12.6039 145.608 12.7395 145.608 12.9427C145.608 13.0783 145.608 13.2816 145.54 13.4171C145.472 13.5526 145.404 13.6881 145.336 13.8237C145.268 13.9592 145.132 14.027 145.064 14.1625C144.928 14.2302 144.86 14.3658 144.724 14.3658C144.588 14.4335 144.452 14.5013 144.316 14.5013C144.18 14.5013 144.044 14.5691 143.841 14.5691H142.141L142.889 10.3H145.812L145.676 11.1809H143.773L143.637 11.8585H144.316V11.7908ZM143.433 12.6717L143.229 13.6881H143.909C143.977 13.6881 144.044 13.6881 144.18 13.6204C144.248 13.6204 144.316 13.5526 144.384 13.4848C144.452 13.4171 144.52 13.3493 144.52 13.2816C144.588 13.2138 144.588 13.146 144.588 13.0105C144.588 12.9427 144.588 12.875 144.52 12.8072C144.52 12.7395 144.452 12.7395 144.452 12.6717C144.384 12.6039 144.384 12.6039 144.316 12.6039C144.248 12.6039 144.18 12.6039 144.112 12.6039H143.433V12.6717Z" fill="#232629"/>
</svg>
