<svg width="40" height="44" viewBox="0 0 40 44" fill="none" xmlns="http://www.w3.org/2000/svg">
<path d="M8.14508 8.67553C14.6041 2.83295 24.2702 2.74361 30.8186 8.07698L25.6282 8.27352C24.9581 8.30032 24.44 8.8542 24.4668 9.52422C24.4936 10.1764 25.0296 10.6856 25.6728 10.6856C25.6907 10.6856 25.6996 10.6856 25.7175 10.6856L33.6863 10.3908C34.3384 10.364 34.8476 9.8369 34.8476 9.18474V9.09541C34.8476 9.07754 34.8476 9.06861 34.8476 9.05074V9.04181L34.5528 1.16236C34.526 0.492343 33.9632 -0.0258063 33.3021 0.000994479C32.6321 0.0277953 32.114 0.581679 32.1408 1.2517L32.3284 6.19198C29.0855 3.5387 25.0921 2.00212 20.8219 1.78772C15.5332 1.51971 10.45 3.33323 6.5281 6.88881C1.1322 11.7755 -1.1548 19.2083 0.560453 26.2837C0.694457 26.8376 1.18581 27.2038 1.73076 27.2038C1.82902 27.2038 1.91836 27.1949 2.01663 27.1681C2.65985 27.0073 3.06186 26.3551 2.90106 25.7119C1.40021 19.4941 3.40134 12.9637 8.14508 8.67553Z" fill="#292929"/>
<path d="M39.4395 17.4662C39.2786 16.823 38.6265 16.421 37.9833 16.5818C37.3401 16.7426 36.938 17.3947 37.0989 18.038C38.6086 24.2558 36.5986 30.7862 31.8548 35.0744C28.5226 38.085 24.3417 39.568 20.1786 39.568C16.2031 39.568 12.2366 38.219 9.03838 35.5568L14.2913 35.0833C14.9524 35.0208 15.4438 34.4401 15.3812 33.77C15.3187 33.1 14.738 32.6176 14.068 32.6801L6.12603 33.3948C5.46494 33.4574 4.97359 34.0381 5.03613 34.7081L5.75082 42.6501C5.80442 43.2754 6.3315 43.7489 6.94792 43.7489C6.98365 43.7489 7.01939 43.7489 7.05512 43.74C7.71621 43.6774 8.20756 43.0967 8.14502 42.4267L7.71621 37.5936C10.9591 40.2201 14.9346 41.7478 19.178 41.9622C19.5175 41.98 19.857 41.989 20.1875 41.989C25.1099 41.989 29.7912 40.1844 33.4718 36.8611C38.8677 31.9744 41.1547 24.5506 39.4395 17.4662Z" fill="#292929"/>
</svg>
