<svg width="35" height="30" viewBox="0 0 35 30" fill="none" xmlns="http://www.w3.org/2000/svg">
<path d="M11.0666 20.0001H29.1333C29.5807 20.0001 29.9732 19.7043 30.0943 19.2746L34.0945 5.27443C34.1804 4.97261 34.1216 4.6484 33.9323 4.39762C33.7427 4.14762 33.4479 3.99997 33.1333 3.99997H8.758L8.04316 0.783327C7.9416 0.325258 7.53535 0 7.06661 0H0.999991C0.447392 0 0 0.447392 0 0.999991C0 1.55285 0.447392 1.99998 0.999991 1.99998H6.26401L9.87517 18.2498C8.81268 18.7118 8.0666 19.7694 8.0666 21.0001C8.0666 22.6542 9.41242 24.0001 11.0666 24.0001H29.1333C29.6862 24.0001 30.1333 23.5529 30.1333 23.0001C30.1333 22.4475 29.6862 22.0001 29.1333 22.0001H11.0666C10.5158 22.0001 10.0666 21.5519 10.0666 21.0001C10.0666 20.4483 10.5158 20.0001 11.0666 20.0001Z" fill="#292929"/>
<path d="M10.0667 27C10.0667 28.6544 11.4125 29.9999 13.0669 29.9999C14.721 29.9999 16.0669 28.6544 16.0669 27C16.0669 25.3458 14.721 24 13.0669 24C11.4125 24 10.0667 25.3458 10.0667 27Z" fill="#292929"/>
<path d="M24.1333 27C24.1333 28.6544 25.4791 29.9999 27.1333 29.9999C28.7877 29.9999 30.1332 28.6544 30.1332 27C30.1332 25.3458 28.7877 24 27.1333 24C25.4791 24 24.1333 25.3458 24.1333 27Z" fill="#292929"/>
</svg>
