<svg width="77" height="12" viewBox="0 0 77 12" fill="none" xmlns="http://www.w3.org/2000/svg">
<path d="M10.0872 0.941557H9.38809L8.87446 4.55126L7.84005 0.192507L7.82579 0.135437H5.65711L5.4645 0.941557H4.83672L3.93786 4.74388L3.29582 0.199641L3.28868 0.135437H0.791853L0.941662 0.941557H0L1.99033 11.4996H4.02347L4.19468 10.8433H4.96513L6.24921 5.98516L7.70451 11.4996H9.73765L9.85892 10.8433H10.6722L12.6696 0.228176L12.6839 0.142571H10.1942L10.0872 0.941557ZM12.5127 0.278113L10.5509 10.6935H8.63191L6.74145 3.51686L4.85099 10.6935H2.93199L0.970198 0.278113H3.16028L4.13761 7.19791L5.77125 0.278113H7.70451L9.33815 7.19791L10.3155 0.278113H12.5127Z" fill="#292929"/>
<path d="M17.3947 1.80493C16.3889 1.80493 15.9751 2.65385 15.9751 4.73693V6.23502C15.9751 8.3181 16.3889 9.16702 17.3947 9.16702C18.4006 9.16702 18.8144 8.3181 18.8144 6.23502V4.73693C18.8144 2.65385 18.4077 1.80493 17.3947 1.80493ZM17.8656 6.96981C17.8656 7.89007 17.78 8.54638 17.6087 9.00294C17.5374 9.01721 17.4732 9.02434 17.3947 9.02434C16.4887 9.02434 16.1249 8.21822 16.1249 6.23502V4.73693C16.1249 3.75959 16.2176 3.06762 16.4174 2.61819C16.4531 2.61819 16.4816 2.61105 16.5173 2.61105C17.4518 2.61105 17.8656 3.38864 17.8656 5.47171V6.96981Z" fill="#292929"/>
<path d="M17.3943 0C16.1958 0 15.2898 0.435162 14.6906 1.27695C13.6205 1.9404 13.0212 3.32435 13.0212 5.47163V6.96973C13.0212 10.1371 14.3053 11.6352 16.5097 11.6352C17.5155 11.6352 18.3288 11.3142 18.9138 10.6793C20.2549 10.0801 20.954 8.57484 20.954 6.23495V4.73685C20.954 1.63364 19.727 0 17.3943 0ZM20.8114 6.23495C20.8114 9.23828 19.6271 10.8291 17.3943 10.8291C15.1614 10.8291 13.9772 9.23828 13.9772 6.23495V4.73685C13.9772 1.73352 15.1614 0.142676 17.3943 0.142676C19.6271 0.142676 20.8114 1.73352 20.8114 4.73685V6.23495Z" fill="#292929"/>
<path d="M26.3757 1.80493C25.3698 1.80493 24.9561 2.65385 24.9561 4.73693V6.23502C24.9561 8.3181 25.3698 9.16702 26.3757 9.16702C27.3816 9.16702 27.7953 8.3181 27.7953 6.23502V4.73693C27.7953 2.65385 27.3816 1.80493 26.3757 1.80493ZM26.8394 6.96981C26.8394 7.89007 26.7538 8.54638 26.5826 9.00294C26.5112 9.01721 26.447 9.02434 26.3685 9.02434C25.4626 9.02434 25.0987 8.21822 25.0987 6.23502V4.73693C25.0987 3.75959 25.1915 3.06762 25.3912 2.61819C25.4269 2.61819 25.4554 2.61105 25.4911 2.61105C26.4256 2.61105 26.8394 3.38864 26.8394 5.47171V6.96981Z" fill="#292929"/>
<path d="M26.3752 0C25.1767 0 24.2708 0.435162 23.6715 1.27695C22.6014 1.9404 22.0022 3.32435 22.0022 5.47163V6.96973C22.0022 10.1371 23.2863 11.6352 25.4906 11.6352C26.4965 11.6352 27.3098 11.3142 27.8947 10.6793C29.2359 10.0801 29.935 8.57484 29.935 6.23495V4.73685C29.935 1.63364 28.708 0 26.3752 0ZM29.7923 6.23495C29.7923 9.23828 28.6081 10.8291 26.3752 10.8291C24.1423 10.8291 22.9581 9.23828 22.9581 6.23495V4.73685C22.9581 1.73352 24.1423 0.142676 26.3752 0.142676C28.6081 0.142676 29.7923 1.73352 29.7923 4.73685V6.23495Z" fill="#292929"/>
<path d="M40.4463 0.941557H39.7472L39.2335 4.55126L38.1991 0.192507L38.1849 0.135437H36.0162L35.8236 0.941557H35.1958L34.2969 4.74388L33.6549 0.199641L33.6478 0.135437H31.1581L31.3079 0.941557H30.3662L32.3565 11.4996H34.3897L34.5609 10.8433H35.3242L36.6083 5.98516L38.0636 11.4996H40.0967L40.218 10.8433H41.0312L43.0287 0.228176L43.0572 0.135437H40.5604L40.4463 0.941557ZM42.8789 0.278113L40.9171 10.6935H38.9981L37.1077 3.51686L35.2101 10.6935H33.2911L31.3293 0.278113H33.5193L34.4967 7.19791L36.1375 0.278113H38.0707L39.7044 7.19791L40.6817 0.278113H42.8789Z" fill="#292929"/>
<path d="M50.9021 7.41916H48.7192L48.712 7.48336C48.6764 7.77585 48.6264 8.0184 48.5622 8.22528H47.9059C47.8702 8.53917 47.8132 8.79599 47.7418 9.01C47.6919 9.01713 47.642 9.02427 47.592 9.02427C46.7146 9.02427 46.3222 8.16108 46.3222 6.23495V4.73685C46.3222 3.75952 46.4149 3.06754 46.6147 2.61811C46.6504 2.61811 46.6789 2.61097 46.7146 2.61097C47.4065 2.61097 47.7989 3.14601 47.9059 4.21608H49.939C49.9105 3.98066 49.8677 3.76665 49.8178 3.55977H50.9021L50.895 3.47416C50.6096 1.23415 49.4325 0 47.592 0C46.4078 0 45.5018 0.44943 44.8954 1.29835C43.8325 1.97606 43.219 3.35289 43.219 5.47163V6.96973C43.219 10.0943 44.553 11.6352 46.7074 11.6352C47.6848 11.6352 48.4409 11.3356 48.9831 10.7078C50.0389 10.2513 50.6667 9.18834 50.8878 7.49763L50.9021 7.41916ZM47.592 10.8291C45.3877 10.8291 44.1749 9.19548 44.1749 6.23495V4.73685C44.1749 1.77632 45.3877 0.142676 47.592 0.142676C49.3541 0.142676 50.4384 1.26982 50.738 3.40996H48.8547C48.7334 2.34702 48.3125 1.80485 47.592 1.80485C46.5862 1.80485 46.1724 2.65378 46.1724 4.73685V6.23495C46.1724 8.26095 46.6076 9.16694 47.592 9.16694C48.3339 9.16694 48.6978 8.70325 48.8476 7.56184H50.7309C50.4241 9.79472 49.4254 10.8291 47.592 10.8291Z" fill="#292929"/>
<path d="M56.8792 0.135437H54.6891L54.4537 0.941557H53.8616L50.8154 11.4996H53.0483L53.2124 10.8433H53.9828L54.3253 9.49499H56.2514L56.7579 11.4996H58.9908L58.7982 10.8433H59.9681L56.8792 0.135437ZM57.6924 10.6935L57.1859 8.68887H54.3823L53.8758 10.6935H51.7999L54.7961 0.278113H56.765L59.7684 10.6935H57.6924Z" fill="#292929"/>
<path d="M54.7973 6.94118L54.7759 7.03392H56.8019L55.7889 2.93912L54.7973 6.94118ZM54.9614 6.88411L55.2966 5.54296L55.6319 6.88411H54.9614Z" fill="#292929"/>
<path d="M64.5866 1.95471H63.595V4.88671H64.5866C65.6709 4.88671 66.1275 4.45154 66.1275 3.43854C66.1275 2.41128 65.6566 1.95471 64.5866 1.95471ZM65.1145 4.68696C64.9575 4.7155 64.7863 4.7369 64.5866 4.7369H63.7448V2.76083C64.7007 2.76797 65.1787 3.13892 65.1787 4.16619C65.1787 4.37307 65.1573 4.53715 65.1145 4.68696Z" fill="#292929"/>
<path d="M66.819 6.28478C67.7821 5.76401 68.2672 4.80095 68.2672 3.43839C68.2672 1.34105 67.0116 0.135437 64.8287 0.135437H61.4472V0.941557H60.6411V11.4996H62.7813V10.8361H63.7443V7.34772H63.8442L65.3922 11.4925H67.6394L67.3826 10.8361H68.631L66.819 6.28478ZM66.3196 10.6935L64.793 6.59153L64.7787 6.5416H63.6016V10.6935H61.6042V0.278113H64.8358C66.926 0.278113 68.1316 1.42666 68.1316 3.43126C68.1316 4.78668 67.6608 5.68554 66.7048 6.18491L66.6478 6.21344L68.4241 10.6863H66.3196V10.6935Z" fill="#292929"/>
<path d="M73.4539 0.135437H70.1081V0.941557H69.302V11.4996H72.5764C73.6322 11.4996 74.4383 11.1786 75.0162 10.5365C76.3359 9.94442 76.9994 8.48913 76.9994 6.17064V4.80095C76.9994 1.70487 75.808 0.135437 73.4539 0.135437ZM76.8496 6.17777C76.8496 9.17397 75.7082 10.6935 73.4467 10.6935H70.2437V0.278113H73.4467C75.701 0.278113 76.8496 1.79761 76.8496 4.79381V6.17777Z" fill="#292929"/>
<path d="M73.45 1.95471H72.2444V9.01718H73.45C74.6271 9.01718 74.8554 7.97565 74.8554 6.17079V4.8011C74.8554 2.99625 74.6199 1.95471 73.45 1.95471ZM73.8994 6.90557C73.8994 7.76163 73.8424 8.39654 73.6783 8.84597C73.607 8.86024 73.5285 8.86737 73.4429 8.86737H72.3871V2.76083H72.5654C73.6069 2.76083 73.8994 3.61689 73.8994 5.52875V6.90557Z" fill="#292929"/>
</svg>
